<svg id="Layer_1" data-name="Layer 1" xmlns="http://www.w3.org/2000/svg" viewBox="0 0 360 90"><title>125-homepage-logo</title><line x1="102.26" y1="11.11" x2="102.26" y2="79.76" fill="none" stroke="#fff" stroke-miterlimit="10" stroke-width="1.13"/><path d="M83.11,75.34l4-7a.34.34,0,0,0-.3-.51H79.63V65.53a.35.35,0,0,0-.34-.35H15.46a.35.35,0,0,0-.35.35v2.32H6.86a.35.35,0,0,0-.3.16.36.36,0,0,0,0,.35l4,7L6.57,81.19a.36.36,0,0,0,0,.35.35.35,0,0,0,.31.18H20a.34.34,0,0,0,.34-.34V79.06H73.26v2.32a.35.35,0,0,0,.35.34H86.78a.34.34,0,0,0,.28-.53Z" fill="#fff"/><path d="M11.58,41.91c4.33,0,5.56-.89,5.56-2.78V16.22c0-2.78-.61-3.73-5.66-4v-.52l12.31-1V39.13c0,1.89,1.08,2.73,5.51,2.78v.61H11.58Z" fill="#fff"/><path d="M32.46,38.47l6.65-5c6.88-5.14,9-8.35,9-14.34,0-5.79-2.26-7.68-5.51-7.68-2.08,0-4.48.89-5.47,2.69,2.21.89,3.2,2.12,3.2,4a3.87,3.87,0,0,1-3.91,4.06,3.93,3.93,0,0,1-4-4.2c0-4.67,5.09-7.5,11-7.5,7.87,0,11.5,3.77,11.5,8.54,0,4.52-3.44,7.78-12.63,13.72l-5.94,4V37H49.2c3.06,0,3.77-.76,5.42-4.9l.61,0-.14,10.37H32.46Z" fill="#fff"/><path d="M59.38,36.82a4,4,0,0,1,4-4.15,3.35,3.35,0,0,1,3.49,3.54,4.39,4.39,0,0,1-2.78,4,7.11,7.11,0,0,0,5.28,2.13c4.67,0,5.8-3.78,5.8-9.57,0-6-2.6-7.93-6.23-7.93a11,11,0,0,0-6.79,2.5l-.89-.42.47-15.75H81.26L80.32,17H62.73l-.33,9.2a14.45,14.45,0,0,1,8.2-2.6c8.25,0,11.55,4,11.55,9.29,0,5.66-4.38,10.32-12.39,10.32-5.28,0-10.38-2.16-10.38-6.36" fill="#fff"/><path d="M22.56,50c.93-1.66.74-2.25-1-2.65v-.27h4.85v.27c-1.4.25-2.24.86-3.57,3.19l-2.66,4.71v5c0,.8.42,1.14,2.24,1.2v.29H14.86V61.4c1.8-.06,2.24-.4,2.24-1.2V55.67l-3.69-6.62A3,3,0,0,0,11,47.33v-.27h7.42v.27c-2.08.13-2.25.69-1.62,1.81l3,5.67Z" fill="#fff"/><path d="M26.49,61.4c1.74-.06,2.18-.4,2.18-1.2V48.55c0-.8-.44-1.16-2.18-1.22v-.27H39l.06,5-.32,0c-1.47-3.26-2.26-4.64-4.85-4.64H31.74V53.9h.88c1.68,0,2.65-.71,3.21-2.85h.28v6.13h-.28c-.56-2.16-1.53-2.9-3.21-2.9h-.88v7h2.08c3,0,4-1.3,5.54-4.91l.32,0-.11,5.27H26.49Z" fill="#fff"/><path d="M49.27,56.13H44.44l-.71,1.93c-.86,2.27-.52,3.07,1.43,3.34v.29h-5V61.4c1.37-.36,2.17-1.26,3-3.42l4.34-11.26H49l4.75,12.89c.46,1.22.77,1.56,2.35,1.79v.29H48.58V61.4c2-.08,2.4-.52,2-1.64Zm-.14-.42L47,49.64h-.11l-2.27,6.07Z" fill="#fff"/><path d="M61.58,60.2c0,.84.55,1.14,2.08,1.2v.29H56.33V61.4c1.74-.06,2.19-.4,2.19-1.2V48.55c0-.8-.45-1.16-2.19-1.22v-.27h7.16c4.37,0,5.92,1.62,5.92,3.55S68.26,53.76,65,54.22v.06c3.09.11,3.91,1.47,4.18,3.45l.13,1.61c.25,1.7.54,2,2.29,2v.25a13.71,13.71,0,0,1-2.23.19c-2.62,0-3.07-.82-3.23-2.67l-.17-1.82c-.21-2.13-.78-2.84-3.17-2.84H61.58ZM63,54.11c2.62,0,3.19-.94,3.19-3.31,0-2.1-.8-3.36-3.42-3.36h-1.2v6.67Z" fill="#fff"/><path d="M72.33,56.74h.34c1.39,2.92,3.11,4.83,5.19,4.83A2.62,2.62,0,0,0,80.75,59c0-1.71-1.26-2.52-3.78-3.36-2.2-.74-4.43-1.56-4.43-4.27s2.08-4.58,5-4.58a6.88,6.88,0,0,1,3.22.8l.92-.92H82V51.4h-.34c-1.38-2.87-2.72-4.22-4.36-4.22a2.43,2.43,0,0,0-2.59,2.44c0,1.64,1.31,2.41,3.76,3.19,2,.63,4.2,1.51,4.2,4.24A4.69,4.69,0,0,1,77.54,62a8.43,8.43,0,0,1-3.72-1l-1.23,1h-.26Z" fill="#fff"/><polygon points="23.97 69.98 22.76 70.32 22.51 69.36 24.32 68.78 25.14 68.78 25.14 75.56 23.97 75.56 23.97 69.98"/><path d="M26.53,73.72v0a1.69,1.69,0,0,1,1.21-1.63,1.61,1.61,0,0,1-1-1.5v0c0-1,1-1.82,2.33-1.82s2.34.78,2.34,1.82v0a1.61,1.61,0,0,1-1,1.5,1.72,1.72,0,0,1,1.21,1.61v0c0,1.21-1.1,2-2.57,2s-2.56-.76-2.56-1.93m4-.07h0c0-.62-.61-1-1.41-1s-1.4.39-1.4,1h0c0,.55.52,1,1.4,1s1.41-.45,1.41-1m-.21-3v0c0-.52-.48-.94-1.2-.94s-1.2.42-1.2.94v0a1.22,1.22,0,0,0,2.4,0"/><path d="M36.61,72.48a2,2,0,0,1-1.58.71,2.13,2.13,0,0,1-2.39-2.13v0a2.34,2.34,0,0,1,2.51-2.33,2.43,2.43,0,0,1,1.88.72,3.37,3.37,0,0,1,.8,2.56v0c0,2.16-1.06,3.66-2.88,3.66a3.18,3.18,0,0,1-2.15-.8l.64-.91A2.31,2.31,0,0,0,35,74.6c1.18,0,1.61-1.23,1.63-2.12m0-1.49v0a1.27,1.27,0,0,0-1.41-1.23A1.23,1.23,0,0,0,33.83,71v0A1.22,1.22,0,0,0,35.2,72.2,1.25,1.25,0,0,0,36.57,71"/><path d="M38.79,74.64l.73-.85a2.56,2.56,0,0,0,1.73.81,1.19,1.19,0,0,0,1.34-1.17v0c0-.68-.58-1.11-1.4-1.11a2.8,2.8,0,0,0-1.24.3l-.71-.47.19-3.3h4v1.06h-3l-.1,1.56a2.91,2.91,0,0,1,1.06-.19,2.08,2.08,0,0,1,2.35,2.11v0a2.26,2.26,0,0,1-2.5,2.28,3.42,3.42,0,0,1-2.47-1"/><rect x="44.87" y="72.04" width="2.85" height="1.14"/><path d="M48.72,74.63l2.32-2c.91-.78,1.26-1.21,1.26-1.81a1,1,0,0,0-1.09-1c-.61,0-1,.34-1.54,1l-.85-.66a2.76,2.76,0,0,1,2.48-1.41,2,2,0,0,1,2.22,2v0c0,1.07-.56,1.64-1.75,2.61l-1.38,1.15h3.2v1H48.72Z"/><path d="M54.7,72.21v0c0-1.92,1.17-3.48,2.94-3.48s2.92,1.54,2.92,3.46v0c0,1.93-1.17,3.48-2.94,3.48s-2.92-1.54-2.92-3.46m4.64,0v0c0-1.32-.68-2.41-1.72-2.41s-1.7,1.07-1.7,2.39v0c0,1.33.67,2.42,1.72,2.42s1.7-1.08,1.7-2.4"/><path d="M61.49,74.63l2.31-2c.92-.78,1.26-1.21,1.26-1.81a1,1,0,0,0-1.08-1c-.62,0-1,.34-1.55,1l-.85-.66a2.77,2.77,0,0,1,2.48-1.41,2,2,0,0,1,2.22,2v0c0,1.07-.55,1.64-1.75,2.61l-1.38,1.15h3.2v1H61.49Z"/><path d="M67.46,72.21v0c0-1.92,1.17-3.48,2.94-3.48s2.92,1.54,2.92,3.46v0c0,1.93-1.17,3.48-2.94,3.48s-2.92-1.54-2.92-3.46m4.64,0v0c0-1.32-.68-2.41-1.72-2.41s-1.7,1.07-1.7,2.39v0c0,1.33.67,2.42,1.72,2.42s1.7-1.08,1.7-2.4"/><polygon points="171.74 10.99 147.5 2.98 123.24 10.99 123.26 79.58 147.51 87.58 171.76 79.58 171.74 10.99" fill="#b5b7b8"/><path d="M125,78.31l22.5,7.43L170,78.31v-23a149.94,149.94,0,0,1-45,9.37Z" fill="#b1282e"/><path d="M147.5,4.83,125,12.25V62.62c1.9-.2,3.81-.44,5.75-.72l2-.32V32.78h4.53l-.79.92V60.93l1.28-.24V32.78h20.47l-.79.92V55.31l1.28-.47V32.78h3.44V53.49c2.75-1.14,5.35-2.35,7.78-3.62V12.25Z"/><path d="M131.56,31.4l.05.05h31.77l.05-.05-1.22-1.64V22.89l.63-.92-.77-1V19.36l.4-.64-.85-1.31h-.24a5.12,5.12,0,0,0,.4-2.1v-.15l-.13,0-.27,0a1.21,1.21,0,0,0,.05-.34c0-.44-.21-.77-.48-.77s-.48.33-.48.77a1.21,1.21,0,0,0,.05.34l-.27,0-.14,0v.15a5.36,5.36,0,0,0,.39,2.1h-.23l-.84,1.31.4.64V21l-.77,1,.48.7h-1v2.68h-.92V28h-2.28V26.1l.7-.76v0h-1v-.25l.53-.52-.9-.92a4.6,4.6,0,0,0,.37-1.85v-.14l-.14,0a3.45,3.45,0,0,0-1.2,0l-.14,0v.14a4.46,4.46,0,0,0,.36,1.85l-.89.92.53.52v.25h-1.2V28H150V26.1l.7-.76v0h-1.61V23.58l.64-.7h-1.14V21.44l.39-.64-.94-1.23h-.17a4.64,4.64,0,0,0,.33-1.78v-.14l-.13,0-.21,0a.86.86,0,0,0,0-.28c0-.38-.19-.68-.44-.68s-.43.3-.43.68a1.27,1.27,0,0,0,0,.28l-.2,0-.14,0v.14a4.48,4.48,0,0,0,.33,1.78h-.17L146,20.8l.39.64v1.44h-1.17v2.44h-1V28H142V26.1l.68-.73v-.05h-1v-.25l.53-.52-.89-.92a4.46,4.46,0,0,0,.36-1.85v-.14l-.14,0a3.45,3.45,0,0,0-1.2,0l-.14,0v.14a4.5,4.5,0,0,0,.36,1.85l-.9.92.54.52v.25H139V28h-2.27V26.1l.68-.73v0h-1.74V23.58l.83-.9h-1l.48-.7-.76-1V19.36l.39-.64-.84-1.31h-.24a5.37,5.37,0,0,0,.4-2.1v-.14l-.14,0-.27,0a.93.93,0,0,0,0-.34c0-.44-.2-.77-.48-.77s-.52.33-.52.77a1.22,1.22,0,0,0,0,.34l-.26,0-.14,0v.15a5.37,5.37,0,0,0,.4,2.1h-.19l-.83,1.31.39.64V21l-.76,1,.63.92v6.87Z" fill="#fff"/><path d="M170,49.87c-2.43,1.27-5,2.48-7.78,3.62V32.78h-3.44V54.84l-1.28.47V33.7l.79-.92H137.81V60.69l-1.28.24V33.7l.79-.92h-4.53v28.8l-2,.32q-2.9.42-5.75.72v.91a157.19,157.19,0,0,0,45-11Z" fill="#fff"/><polygon points="155.19 36.41 148.56 36.41 148.56 46.03 149.93 44.66 154 44.66 154 41.68 149.71 41.68 149.71 40.68 154 40.68 154 37.6 155.19 36.41" fill="#262425"/><polygon points="147 36.41 140.36 36.41 140.36 46.03 141.73 44.66 145.81 44.66 145.81 41.68 141.51 41.68 141.51 40.68 145.81 40.68 145.81 37.6 147 36.41" fill="#262425"/><polygon points="155.19 47.29 148.56 47.29 148.56 56.91 149.93 55.54 154 55.54 154 52.56 149.71 52.56 149.71 51.56 154 51.56 154 48.48 155.19 47.29" fill="#262425"/><polygon points="147 47.29 140.36 47.29 140.36 56.91 141.73 55.54 145.81 55.54 145.81 52.56 141.51 52.56 141.51 51.56 145.81 51.56 145.81 48.48 147 47.29" fill="#262425"/><polygon points="144.22 66.7 140.54 66.7 140.88 67.38 140.94 67.48 140.94 72.22 132.92 66.72 129.5 66.7 129.97 67.49 129.97 76.17 129.57 76.97 133.34 76.97 132.95 76.17 132.95 69.92 140.94 75.45 140.94 76.17 140.62 76.97 144.22 76.97 143.83 76.17 143.83 67.5 144.22 66.7" fill="#fff"/><polygon points="150.4 66.7 146.73 66.7 147.06 67.38 147.13 67.48 147.12 76.17 146.81 76.97 150.4 76.97 150.01 76.17 150.01 67.5 150.4 66.7" fill="#fff"/><polygon points="165.85 66.7 162.16 66.7 162.56 67.5 162.56 74.65 156.25 74.65 156.25 67.5 156.64 66.7 152.96 66.7 153.34 67.48 153.33 75.14 155.65 76.99 163.15 76.99 165.47 75.15 165.47 67.48 165.85 66.7" fill="#fff"/><path d="M197.57,43.46l-8.16-11.14v8.06a3.67,3.67,0,0,0,.2,1.6c.13.18.53.29,1.21.34H191v.92h-4.63v-.92h.19c.67,0,1.07-.16,1.2-.34a3.67,3.67,0,0,0,.2-1.6v-9a3.63,3.63,0,0,0-.2-1.6c-.13-.17-.53-.29-1.2-.34h-.19v-.93h3.68l8.11,11.11V31.42a3.63,3.63,0,0,0-.2-1.6c-.13-.17-.53-.29-1.21-.34h-.18v-.93h4.63v.93H201c-.68.05-1.08.17-1.21.34a3.48,3.48,0,0,0-.2,1.6v12Z" fill="#fff"/><path d="M207.26,43.5A5.61,5.61,0,0,1,203.1,42a5.68,5.68,0,0,1-1.52-4.18,5.68,5.68,0,0,1,1.52-4.18,6.41,6.41,0,0,1,8.31,0,5.67,5.67,0,0,1,1.51,4.18,5.24,5.24,0,0,1-5.66,5.7m0-1a1.93,1.93,0,0,0,1.81-1.17,7.9,7.9,0,0,0,.6-3.49,7.89,7.89,0,0,0-.6-3.5,2,2,0,0,0-3.63,0,7.73,7.73,0,0,0-.61,3.5,7.74,7.74,0,0,0,.61,3.49,1.94,1.94,0,0,0,1.82,1.17" fill="#fff"/><path d="M218,35.46v4.91a3.37,3.37,0,0,0,.22,1.61,2.52,2.52,0,0,0,1.44.34h.19v.92h-6.38v-.92h.19c.67,0,1.07-.16,1.2-.34a3.72,3.72,0,0,0,.2-1.61V35.22a3.63,3.63,0,0,0-.2-1.6c-.13-.19-.53-.3-1.2-.35h-.19v-.92H218V34.4a4,4,0,0,1,3.48-2.31,2.93,2.93,0,0,1,.58.08v3.48h-1.35v-.18a7,7,0,0,0-.15-1.25c0-.09-.2-.14-.49-.14A2.34,2.34,0,0,0,218,35.46" fill="#fff"/><path d="M230.34,43.16a5.16,5.16,0,0,1-1.81.34,3.75,3.75,0,0,1-2.76-.91,3.68,3.68,0,0,1-.92-2.73V33.32H223.5v-1h1.35V30.5l2.94-.52v2.36h2.42v1h-2.42v6.61a4.22,4.22,0,0,0,.29,1.93,1.3,1.3,0,0,0,1.19.47,2.91,2.91,0,0,0,1.07-.23Z" fill="#fff"/><path d="M236.1,34.4a4.83,4.83,0,0,1,1.61-1.73,3.94,3.94,0,0,1,2.13-.58,3,3,0,0,1,2.31.91,3.63,3.63,0,0,1,.82,2.53v4.84a3.51,3.51,0,0,0,.21,1.61c.13.18.53.29,1.2.34h.19v.92h-6.13v-.92h.18c.67,0,1.08-.16,1.21-.34a3.72,3.72,0,0,0,.2-1.61v-4.5a3.17,3.17,0,0,0-.27-1.58,1.2,1.2,0,0,0-1-.41,2.45,2.45,0,0,0-1.32.4,5.36,5.36,0,0,0-1.29,1.22v4.87a3.72,3.72,0,0,0,.2,1.61c.14.18.54.29,1.21.34h.18v.92h-6.12v-.92h.19c.67,0,1.07-.16,1.2-.34a3.72,3.72,0,0,0,.2-1.61V30.44a3.67,3.67,0,0,0-.2-1.6c-.13-.19-.53-.3-1.2-.34l-.19,0v-.92h4.53Z" fill="#fff"/><path d="M255,42.83a11.59,11.59,0,0,1-3.8.67,6.09,6.09,0,0,1-4.42-1.57,5.65,5.65,0,0,1-1.62-4.26,5.64,5.64,0,0,1,1.46-4,5.06,5.06,0,0,1,3.83-1.55q4.55,0,4.55,5.59v.22h-6.82a4.43,4.43,0,0,0,1,3.1,3.79,3.79,0,0,0,2.9,1,7.68,7.68,0,0,0,3-.71ZM248.29,37h3.86v-.35a7,7,0,0,0-.4-2.79,1.42,1.42,0,0,0-1.38-.81,1.68,1.68,0,0,0-1.56,1,6.48,6.48,0,0,0-.52,3" fill="#fff"/><path d="M260.85,35.46v4.91a3.37,3.37,0,0,0,.22,1.61,2.52,2.52,0,0,0,1.44.34h.19v.92h-6.38v-.92h.19c.67,0,1.07-.16,1.2-.34a3.56,3.56,0,0,0,.2-1.61V35.22a3.48,3.48,0,0,0-.2-1.6c-.13-.19-.53-.3-1.2-.35h-.19v-.92h4.53V34.4a4,4,0,0,1,3.48-2.31,2.84,2.84,0,0,1,.58.08v3.48h-1.35v-.18a7,7,0,0,0-.15-1.25c0-.09-.2-.14-.49-.14a2.34,2.34,0,0,0-2.06,1.38" fill="#fff"/><path d="M270.67,34.4a4.83,4.83,0,0,1,1.61-1.73,4,4,0,0,1,2.13-.58,3,3,0,0,1,2.31.91,3.63,3.63,0,0,1,.82,2.53v4.84a3.51,3.51,0,0,0,.21,1.61c.13.18.53.29,1.2.34h.19v.92H273v-.92h.18c.67,0,1.08-.16,1.21-.34a3.72,3.72,0,0,0,.2-1.61v-4.5a3.17,3.17,0,0,0-.27-1.58,1.2,1.2,0,0,0-1.05-.41,2.47,2.47,0,0,0-1.32.4,5.36,5.36,0,0,0-1.29,1.22v4.87a3.51,3.51,0,0,0,.21,1.61c.13.18.53.29,1.2.34h.18v.92h-6.12v-.92h.19c.67,0,1.07-.16,1.2-.34a3.56,3.56,0,0,0,.2-1.61V35.22a3.51,3.51,0,0,0-.2-1.6c-.13-.18-.53-.3-1.2-.35h-.19v-.92h4.53Z" fill="#fff"/><path d="M290.94,43.25h-6.25v-.92h.19c.67,0,1.07-.16,1.2-.34a3.51,3.51,0,0,0,.2-1.6v-9a3.7,3.7,0,0,0-.19-1.6c-.13-.17-.53-.29-1.21-.34h-.19v-.93h6.25v.93h-.18c-.68.05-1.08.17-1.21.34a3.63,3.63,0,0,0-.2,1.6v9a3.67,3.67,0,0,0,.2,1.6c.13.18.54.29,1.21.34h.18Z" fill="#fff"/><path d="M297,27.56V40.37a3.56,3.56,0,0,0,.2,1.61c.13.18.53.29,1.2.34h.19v.92H292.5v-.92h.19c.67,0,1.07-.16,1.2-.34a3.56,3.56,0,0,0,.2-1.61V30.44a3.51,3.51,0,0,0-.2-1.6c-.13-.19-.53-.3-1.2-.34l-.19,0v-.92Z" fill="#fff"/><path d="M304.47,27.56V40.37a3.72,3.72,0,0,0,.2,1.61c.14.18.54.29,1.2.34h.19v.92h-6.12v-.92h.19c.67,0,1.07-.16,1.2-.34a3.72,3.72,0,0,0,.2-1.61V30.44a3.67,3.67,0,0,0-.2-1.6c-.13-.19-.53-.3-1.2-.34l-.19,0v-.92Z" fill="#fff"/><path d="M311.9,32.34v8a3.51,3.51,0,0,0,.21,1.61c.13.18.53.29,1.2.34h.18v.92h-6.12v-.92h.19c.67,0,1.07-.16,1.2-.34a3.56,3.56,0,0,0,.2-1.61V35.22a3.48,3.48,0,0,0-.2-1.6c-.13-.18-.53-.3-1.2-.35h-.19v-.92ZM309,27.56h2.94V30.5H309Z" fill="#fff"/><path d="M319.14,34.4a4.73,4.73,0,0,1,1.6-1.73,4,4,0,0,1,2.13-.58,3,3,0,0,1,2.31.91,3.63,3.63,0,0,1,.82,2.53v4.84a3.51,3.51,0,0,0,.21,1.61c.13.18.53.29,1.2.34h.19v.92h-6.13v-.92h.18c.67,0,1.08-.16,1.21-.34a3.72,3.72,0,0,0,.2-1.61v-4.5a3.17,3.17,0,0,0-.27-1.58,1.18,1.18,0,0,0-1.05-.41,2.47,2.47,0,0,0-1.32.4,5.16,5.16,0,0,0-1.28,1.22v4.87a3.56,3.56,0,0,0,.2,1.61c.13.18.53.29,1.2.34h.19v.92H314.6v-.92h.19c.67,0,1.07-.16,1.2-.34a3.56,3.56,0,0,0,.2-1.61V35.22a3.51,3.51,0,0,0-.2-1.6c-.13-.18-.53-.3-1.2-.35h-.19v-.92h4.54Z" fill="#fff"/><path d="M333.7,43.5A5.24,5.24,0,0,1,328,37.8a5.67,5.67,0,0,1,1.51-4.18,6.41,6.41,0,0,1,8.31,0,5.68,5.68,0,0,1,1.52,4.18A5.68,5.68,0,0,1,337.85,42a5.61,5.61,0,0,1-4.15,1.52m0-1a1.94,1.94,0,0,0,1.82-1.17,7.9,7.9,0,0,0,.6-3.49,7.89,7.89,0,0,0-.6-3.5,2,2,0,0,0-3.64,0,7.89,7.89,0,0,0-.6,3.5,7.9,7.9,0,0,0,.6,3.49,2,2,0,0,0,1.82,1.17" fill="#fff"/><path d="M344.81,32.34v8A3.51,3.51,0,0,0,345,42c.13.18.53.29,1.2.34h.18v.92h-6.12v-.92h.19c.67,0,1.07-.16,1.2-.34a3.56,3.56,0,0,0,.2-1.61V35.22a3.48,3.48,0,0,0-.2-1.6c-.13-.18-.53-.3-1.2-.35h-.19v-.92Zm-2.94-4.78h2.94V30.5h-2.94Z" fill="#fff"/><path d="M347.7,42.76V39.94H349v.18a2.78,2.78,0,0,0,.37,1.58,3,3,0,0,0,2.37.88,1.8,1.8,0,0,0,1.28-.49,1.55,1.55,0,0,0,.52-1.2c0-.74-.62-1.35-1.86-1.84l-.9-.36c-2.09-.83-3.13-1.94-3.13-3.35A2.8,2.8,0,0,1,348.9,33a5.44,5.44,0,0,1,3.27-.88,11.9,11.9,0,0,1,3.39.52v2.61h-1.35V35l0-.47c0-1-.6-1.54-1.8-1.54a1.89,1.89,0,0,0-1.32.5,1.63,1.63,0,0,0-.55,1.24,1.2,1.2,0,0,0,.4,1,5.72,5.72,0,0,0,1.66.83l.89.35c2,.78,3.05,1.83,3.05,3.14a3,3,0,0,1-1.29,2.48,5.28,5.28,0,0,1-3.28,1,11.05,11.05,0,0,1-4.24-.74" fill="#fff"/><path d="M186.1,47.23h6.25v.93h-.18c-.68,0-1.09.17-1.22.34a3.7,3.7,0,0,0-.19,1.6v6.36a7,7,0,0,0,.75,3.76A2.81,2.81,0,0,0,194,61.34a3.17,3.17,0,0,0,2.76-1.18,6.41,6.41,0,0,0,.87-3.77V50.11a3.63,3.63,0,0,0-.2-1.6c-.13-.17-.53-.29-1.21-.34h-.18v-.93h4.62v.93h-.18c-.67,0-1.07.17-1.19.34a3.7,3.7,0,0,0-.19,1.6v6a6.84,6.84,0,0,1-1.34,4.66,5.3,5.3,0,0,1-4.16,1.5c-4,0-5.95-2-5.95-6V50.18a3.69,3.69,0,0,0-.2-1.61c-.13-.19-.54-.3-1.2-.34l-.19,0Z" fill="#fff"/><path d="M206,53.09a4.75,4.75,0,0,1,1.61-1.73,3.91,3.91,0,0,1,2.13-.58,3,3,0,0,1,2.3.91,3.64,3.64,0,0,1,.83,2.53v4.84a3.54,3.54,0,0,0,.2,1.61c.13.18.54.29,1.21.34h.19v.92h-6.14V61h.18c.68,0,1.08-.16,1.21-.34a3.54,3.54,0,0,0,.2-1.61v-4.5a3.17,3.17,0,0,0-.27-1.58,1.18,1.18,0,0,0-1.05-.41,2.59,2.59,0,0,0-1.32.4A5.16,5.16,0,0,0,206,54.19v4.87a3.54,3.54,0,0,0,.2,1.61c.13.18.53.29,1.2.34h.19v.92h-6.13V61h.19c.67,0,1.07-.16,1.21-.34a3.75,3.75,0,0,0,.19-1.61V53.91a3.73,3.73,0,0,0-.19-1.6c-.14-.18-.54-.3-1.21-.34h-.19V51H206Z" fill="#fff"/><path d="M220.08,51v8a3.69,3.69,0,0,0,.2,1.61c.14.18.54.29,1.2.34h.19v.92h-6.12V61h.19c.67,0,1.07-.16,1.2-.34a3.69,3.69,0,0,0,.2-1.61V53.91a3.67,3.67,0,0,0-.2-1.6c-.13-.18-.53-.3-1.2-.34h-.19V51Zm-2.94-4.78h2.94v2.94h-2.94Z" fill="#fff"/><path d="M227.22,62.06,223.29,54a7.66,7.66,0,0,0-1-1.64,1.62,1.62,0,0,0-1.06-.34H221V51h6.14V52H227q-1.05.06-1.08.39a5.79,5.79,0,0,0,.63,1.59l2.18,4.52L231,54a5.79,5.79,0,0,0,.66-1.65c0-.18-.35-.29-1.06-.33h-.18V51h4V52h-.19a1.72,1.72,0,0,0-1.05.3,9.31,9.31,0,0,0-1,1.65l-4,8.14Z" fill="#fff"/><path d="M243.86,61.52a11.53,11.53,0,0,1-3.79.67,6.06,6.06,0,0,1-4.42-1.57,6.32,6.32,0,0,1-.16-8.29,5,5,0,0,1,3.82-1.55c3,0,4.55,1.86,4.55,5.59v.22H237a4.41,4.41,0,0,0,1,3.1,3.76,3.76,0,0,0,2.89,1,7.64,7.64,0,0,0,3-.71Zm-6.75-5.86H241v-.35a6.88,6.88,0,0,0-.4-2.79,1.4,1.4,0,0,0-1.37-.81,1.68,1.68,0,0,0-1.56,1,6.49,6.49,0,0,0-.53,3" fill="#fff"/><path d="M249.68,54.15v4.91a3.24,3.24,0,0,0,.22,1.61c.14.18.62.29,1.44.34h.19V62h-6.38V61h.18c.67,0,1.07-.16,1.21-.34a3.69,3.69,0,0,0,.2-1.61V53.91a3.67,3.67,0,0,0-.2-1.6c-.14-.18-.54-.3-1.21-.34h-.18V51h4.53v2.06a4,4,0,0,1,3.48-2.31,2.85,2.85,0,0,1,.57.08v3.48h-1.35v-.18a7.55,7.55,0,0,0-.14-1.25c0-.09-.21-.14-.49-.14a2.33,2.33,0,0,0-2.06,1.38" fill="#fff"/><path d="M255.15,61.45V58.64h1.34v.17a2.78,2.78,0,0,0,.37,1.58,3,3,0,0,0,2.37.88,1.8,1.8,0,0,0,1.28-.49,1.56,1.56,0,0,0,.53-1.2c0-.74-.62-1.35-1.86-1.84l-.91-.36c-2.09-.83-3.13-1.94-3.13-3.35a2.78,2.78,0,0,1,1.21-2.37,5.46,5.46,0,0,1,3.26-.88,11.85,11.85,0,0,1,3.39.52v2.61h-1.35v-.19l0-.47c0-1-.6-1.54-1.79-1.54a1.91,1.91,0,0,0-1.33.5,1.67,1.67,0,0,0-.55,1.25,1.23,1.23,0,0,0,.41,1,6.18,6.18,0,0,0,1.65.83l.9.34c2,.79,3.05,1.83,3.05,3.14a3,3,0,0,1-1.29,2.48,5.32,5.32,0,0,1-3.28,1,10.92,10.92,0,0,1-4.25-.74" fill="#fff"/><path d="M269.77,51v8a3.54,3.54,0,0,0,.2,1.61c.14.18.54.29,1.2.34h.19v.92h-6.13V61h.19c.67,0,1.07-.16,1.21-.34a3.69,3.69,0,0,0,.2-1.61V53.91a3.67,3.67,0,0,0-.2-1.6c-.14-.18-.54-.3-1.21-.34h-.19V51Zm-2.94-4.78h2.94v2.94h-2.94Z" fill="#fff"/><path d="M278.81,52H276.4v6.61a4.06,4.06,0,0,0,.29,1.92,1.28,1.28,0,0,0,1.19.47,2.71,2.71,0,0,0,1.06-.23v1.07a5.34,5.34,0,0,1-1.81.33,3.74,3.74,0,0,1-2.75-.91,3.63,3.63,0,0,1-.92-2.72V52H272.1V51h1.36V49.19l2.94-.51V51h8V52h-.18c-.8,0-1.21.12-1.21.35a8.29,8.29,0,0,0,.63,1.6l2,4.51,2.39-4.53a5.67,5.67,0,0,0,.71-1.64c0-.19-.33-.29-1-.29h-.18V51h3.92V52h-.19a2,2,0,0,0-1.07.26,8.81,8.81,0,0,0-1,1.66l-6.37,12H280.3l3.73-4-3.67-7.95a8.69,8.69,0,0,0-.93-1.63.79.79,0,0,0-.62-.23" fill="#fff"/><rect width="360" height="90" fill="none"/></svg>